<mxfile host="app.diagrams.net" modified="2021-12-16T16:06:08.039Z" agent="5.0 (Windows NT 10.0; Win64; x64) AppleWebKit/537.36 (KHTML, like Gecko) Chrome/96.0.4664.110 Safari/537.36" etag="_nb2dOUZhAuoOPvvryXr" version="15.9.4" type="github">
  <diagram id="R2lEEEUBdFMjLlhIrx00" name="Page-1">
    <mxGraphModel dx="1038" dy="547" grid="1" gridSize="10" guides="1" tooltips="1" connect="1" arrows="1" fold="1" page="1" pageScale="0.5" pageWidth="1100" pageHeight="850" math="0" shadow="0" extFonts="Permanent Marker^https://fonts.googleapis.com/css?family=Permanent+Marker">
      <root>
        <mxCell id="0" />
        <mxCell id="1" parent="0" />
        <mxCell id="kEAnJZr-M_3Ag4euo9hT-2" value="componente di arredo" style="whiteSpace=wrap;html=1;align=center;direction=west;" parent="1" vertex="1">
          <mxGeometry x="60" y="270" width="140" height="80" as="geometry" />
        </mxCell>
        <mxCell id="kEAnJZr-M_3Ag4euo9hT-3" value="azienda produttrice" style="whiteSpace=wrap;html=1;align=center;" parent="1" vertex="1">
          <mxGeometry x="590" y="280" width="140" height="70" as="geometry" />
        </mxCell>
        <mxCell id="kEAnJZr-M_3Ag4euo9hT-4" value="progetto di arredo" style="whiteSpace=wrap;html=1;align=center;" parent="1" vertex="1">
          <mxGeometry x="300" y="380" width="170" height="120" as="geometry" />
        </mxCell>
        <mxCell id="kEAnJZr-M_3Ag4euo9hT-5" value="progetto di ambiente" style="whiteSpace=wrap;html=1;align=center;" parent="1" vertex="1">
          <mxGeometry x="50" y="585" width="160" height="50" as="geometry" />
        </mxCell>
        <mxCell id="kEAnJZr-M_3Ag4euo9hT-6" value="cliente" style="whiteSpace=wrap;html=1;align=center;" parent="1" vertex="1">
          <mxGeometry x="710" y="400" width="80" height="40" as="geometry" />
        </mxCell>
        <mxCell id="kEAnJZr-M_3Ag4euo9hT-7" value="architetto" style="whiteSpace=wrap;html=1;align=center;" parent="1" vertex="1">
          <mxGeometry x="690" y="545" width="110" height="35" as="geometry" />
        </mxCell>
        <mxCell id="kEAnJZr-M_3Ag4euo9hT-9" value="" style="edgeStyle=orthogonalEdgeStyle;rounded=0;orthogonalLoop=1;jettySize=auto;html=1;" parent="1" source="kEAnJZr-M_3Ag4euo9hT-8" edge="1">
          <mxGeometry relative="1" as="geometry">
            <Array as="points">
              <mxPoint x="330" y="310" />
              <mxPoint x="330" y="310" />
            </Array>
            <mxPoint x="200" y="310" as="targetPoint" />
          </mxGeometry>
        </mxCell>
        <mxCell id="kEAnJZr-M_3Ag4euo9hT-10" value="" style="edgeStyle=orthogonalEdgeStyle;rounded=0;orthogonalLoop=1;jettySize=auto;html=1;" parent="1" source="kEAnJZr-M_3Ag4euo9hT-8" edge="1">
          <mxGeometry relative="1" as="geometry">
            <mxPoint x="590" y="310" as="targetPoint" />
          </mxGeometry>
        </mxCell>
        <mxCell id="kEAnJZr-M_3Ag4euo9hT-8" value="produce" style="shape=rhombus;perimeter=rhombusPerimeter;whiteSpace=wrap;html=1;align=center;" parent="1" vertex="1">
          <mxGeometry x="365" y="280" width="120" height="60" as="geometry" />
        </mxCell>
        <mxCell id="Sm8z2RAf9bWcOm2X3rAW-4" value="" style="edgeStyle=orthogonalEdgeStyle;rounded=0;orthogonalLoop=1;jettySize=auto;html=1;" edge="1" parent="1" source="Sm8z2RAf9bWcOm2X3rAW-2" target="kEAnJZr-M_3Ag4euo9hT-5">
          <mxGeometry relative="1" as="geometry" />
        </mxCell>
        <mxCell id="Sm8z2RAf9bWcOm2X3rAW-5" value="" style="rounded=0;orthogonalLoop=1;jettySize=auto;html=1;" edge="1" parent="1" source="Sm8z2RAf9bWcOm2X3rAW-2" target="kEAnJZr-M_3Ag4euo9hT-4">
          <mxGeometry relative="1" as="geometry" />
        </mxCell>
        <mxCell id="Sm8z2RAf9bWcOm2X3rAW-2" value="composto" style="shape=rhombus;perimeter=rhombusPerimeter;whiteSpace=wrap;html=1;align=center;" vertex="1" parent="1">
          <mxGeometry x="325" y="580" width="120" height="60" as="geometry" />
        </mxCell>
        <mxCell id="Sm8z2RAf9bWcOm2X3rAW-16" value="" style="edgeStyle=none;rounded=0;orthogonalLoop=1;jettySize=auto;html=1;" edge="1" parent="1" source="Sm8z2RAf9bWcOm2X3rAW-6" target="kEAnJZr-M_3Ag4euo9hT-7">
          <mxGeometry relative="1" as="geometry" />
        </mxCell>
        <mxCell id="Sm8z2RAf9bWcOm2X3rAW-6" value="partecipazione" style="shape=rhombus;perimeter=rhombusPerimeter;whiteSpace=wrap;html=1;align=center;" vertex="1" parent="1">
          <mxGeometry x="520" y="540" width="120" height="60" as="geometry" />
        </mxCell>
        <mxCell id="Sm8z2RAf9bWcOm2X3rAW-7" style="edgeStyle=none;rounded=0;orthogonalLoop=1;jettySize=auto;html=1;exitX=0.75;exitY=1;exitDx=0;exitDy=0;" edge="1" parent="1" source="kEAnJZr-M_3Ag4euo9hT-6" target="kEAnJZr-M_3Ag4euo9hT-6">
          <mxGeometry relative="1" as="geometry" />
        </mxCell>
        <mxCell id="Sm8z2RAf9bWcOm2X3rAW-11" value="" style="edgeStyle=none;rounded=0;orthogonalLoop=1;jettySize=auto;html=1;" edge="1" parent="1" source="Sm8z2RAf9bWcOm2X3rAW-10" target="kEAnJZr-M_3Ag4euo9hT-4">
          <mxGeometry relative="1" as="geometry" />
        </mxCell>
        <mxCell id="Sm8z2RAf9bWcOm2X3rAW-12" value="" style="edgeStyle=none;rounded=0;orthogonalLoop=1;jettySize=auto;html=1;" edge="1" parent="1" source="Sm8z2RAf9bWcOm2X3rAW-10" target="kEAnJZr-M_3Ag4euo9hT-6">
          <mxGeometry relative="1" as="geometry" />
        </mxCell>
        <mxCell id="Sm8z2RAf9bWcOm2X3rAW-10" value="richiede" style="shape=rhombus;perimeter=rhombusPerimeter;whiteSpace=wrap;html=1;align=center;" vertex="1" parent="1">
          <mxGeometry x="540" y="390" width="120" height="60" as="geometry" />
        </mxCell>
        <mxCell id="Sm8z2RAf9bWcOm2X3rAW-14" value="" style="rounded=0;orthogonalLoop=1;jettySize=auto;html=1;shape=link;" edge="1" parent="1" source="Sm8z2RAf9bWcOm2X3rAW-13" target="kEAnJZr-M_3Ag4euo9hT-5">
          <mxGeometry relative="1" as="geometry" />
        </mxCell>
        <mxCell id="Sm8z2RAf9bWcOm2X3rAW-15" value="" style="edgeStyle=none;rounded=0;orthogonalLoop=1;jettySize=auto;html=1;shape=link;" edge="1" parent="1" source="Sm8z2RAf9bWcOm2X3rAW-13">
          <mxGeometry relative="1" as="geometry">
            <mxPoint x="130" y="355" as="targetPoint" />
          </mxGeometry>
        </mxCell>
        <mxCell id="Sm8z2RAf9bWcOm2X3rAW-13" value="composto" style="shape=rhombus;perimeter=rhombusPerimeter;whiteSpace=wrap;html=1;align=center;" vertex="1" parent="1">
          <mxGeometry x="70" y="440" width="120" height="60" as="geometry" />
        </mxCell>
        <mxCell id="Sm8z2RAf9bWcOm2X3rAW-17" value="" style="endArrow=none;html=1;rounded=0;exitX=1;exitY=1;exitDx=0;exitDy=0;entryX=0;entryY=0.5;entryDx=0;entryDy=0;" edge="1" parent="1" source="kEAnJZr-M_3Ag4euo9hT-4" target="Sm8z2RAf9bWcOm2X3rAW-6">
          <mxGeometry relative="1" as="geometry">
            <mxPoint x="460" y="540" as="sourcePoint" />
            <mxPoint x="620" y="540" as="targetPoint" />
          </mxGeometry>
        </mxCell>
      </root>
    </mxGraphModel>
  </diagram>
</mxfile>
